# xmcd
#
# Track frame offsets:
#	150
#	13356
#	25387
#	38325
#	47196
#	59533
#	69601
#	80985
#	90851
#	100121
#	110538
#	120539
#	130679
#	141934
#	150889
#	161543
#	174877
#	188248
#	198943
#	212564
#
# Disc length: 2988 seconds
#
# Revision: 5
# Processed by: cddbd v1.5.2PL0 Copyright (c) Steve Scherf et al.
# Submitted via: EasyCDDAExtractor 12.0.1.1
#
DISCID=070baa14
DTITLE=Various Artist - Blue Cat Rockabilly Box [cd78]
DYEAR=2005
DGENRE=Rockabilly
TTITLE0=TeenCats - Charlena
TTITLE1=Curtis Gordon - Rompin' and Stompin'
TTITLE2=Billy Joe Swilley - County Line Band
TTITLE3=Billy Joe Swilley - Sweet Rockin' Mama
TTITLE4=Hot Boogie Chillun - Come With Me
TTITLE5=Ben Hewitt - My search
TTITLE6=Blue Moon Rockers - Rockin Love
TTITLE7=Jerry Irby - Chickety Clack
TTITLE8=Ric Cartey - Let Me Tell You About Love
TTITLE9=Black Knights - Raw Rhythm Boggie
TTITLE10=Bill Browning and the Echo Valley Boys - Don't Push Don't Shove
TTITLE11=Jimmy and Johnny - I Can't Find The Doorknob
TTITLE12=Billy Brown - Flip Out
TTITLE13=Don Winters - Pretty Moon
TTITLE14=Hank Thompson - Rockin' In The Congo
TTITLE15=Jim Foley - Goodbye Train
TTITLE16=Boppin Steve and The Playtones - Cindy Lou
TTITLE17=George Jones - How come it
TTITLE18=Hank C. Burnette - Red Cadillac and Black 'Stache
TTITLE19=Helene Dixon - Roll Over Beethoven
EXTD=
EXTT0=
EXTT1=
EXTT2=
EXTT3=
EXTT4=
EXTT5=
EXTT6=
EXTT7=
EXTT8=
EXTT9=
EXTT10=
EXTT11=
EXTT12=
EXTT13=
EXTT14=
EXTT15=
EXTT16=
EXTT17=
EXTT18=
EXTT19=
PLAYORDER=
